<svg width="1280" height="720" xmlns="http://www.w3.org/2000/svg" xmlns:xlink="http://www.w3.org/1999/xlink" overflow="hidden"><g><rect x="0" y="0" width="1280" height="720" fill="#FFFFFF"/><path d="M537.5 365.5C537.5 277.134 646.295 205.5 780.5 205.5 914.705 205.5 1023.5 277.134 1023.5 365.5 1023.5 453.866 914.705 525.5 780.5 525.5 646.295 525.5 537.5 453.866 537.5 365.5Z" stroke="#4EA72E" stroke-linejoin="round" stroke-miterlimit="10" fill="none" fill-rule="evenodd"/><path d="M288.5 365.5C288.5 277.134 397.295 205.5 531.5 205.5 665.705 205.5 774.5 277.134 774.5 365.5 774.5 453.866 665.705 525.5 531.5 525.5 397.295 525.5 288.5 453.866 288.5 365.5Z" stroke="#A02B93" stroke-linejoin="round" stroke-miterlimit="10" fill="none" fill-rule="evenodd"/><text font-family="Yu Gothic,Yu Gothic_MSFontService,sans-serif" font-weight="400" font-size="24" transform="translate(819.746 375)">W</text><text font-family="Yu Gothic,Yu Gothic_MSFontService,sans-serif" font-weight="400" font-size="24" transform="translate(842.08 375)">eb Service</text><text font-family="Yu Gothic,Yu Gothic_MSFontService,sans-serif" font-weight="400" font-size="24" transform="translate(620.8 375)">Agent</text><text font-family="Yu Gothic,Yu Gothic_MSFontService,sans-serif" font-weight="400" font-size="24" transform="translate(427.806 358)">Driver</text><text font-family="Yu Gothic,Yu Gothic_MSFontService,sans-serif" font-weight="400" font-size="24" transform="translate(427.806 387)">Interfac</text><text font-family="Yu Gothic,Yu Gothic_MSFontService,sans-serif" font-weight="400" font-size="24" transform="translate(513.306 387)">e</text><text font-family="Yu Gothic,Yu Gothic_MSFontService,sans-serif" font-weight="400" font-size="24" transform="translate(755.59 268)">WebRTC</text><text font-family="Yu Gothic,Yu Gothic_MSFontService,sans-serif" font-weight="400" font-size="24" transform="translate(755.59 297)">Handle</text><path d="M417.47 365.149 184.786 269.461 185.546 267.611 418.231 363.3ZM184.877 272.742 179 266 187.92 265.343Z" fill="#156082"/><path d="M75.5001 242.167C75.5001 236.828 79.8281 232.5 85.1669 232.5L169.833 232.5C175.172 232.5 179.5 236.828 179.5 242.167L179.5 280.833C179.5 286.172 175.172 290.5 169.833 290.5L85.1669 290.5C79.8281 290.5 75.5001 286.172 75.5001 280.833Z" stroke="#156082" stroke-linejoin="round" stroke-miterlimit="10" fill="none" fill-rule="evenodd"/><text font-family="Yu Gothic,Yu Gothic_MSFontService,sans-serif" font-weight="400" font-size="24" transform="translate(88.1162 269)">Scrcpy</text><path d="M0.217634-0.97603 230.108 50.2845 229.673 52.2366-0.217634 0.97603ZM229.46 47.0664 236.398 52.7116 227.719 54.8746Z" fill="#156082" transform="matrix(-1 0 0 1 418.398 365)"/><path d="M78.5001 398.167C78.5001 392.828 82.8281 388.5 88.1669 388.5L172.833 388.5C178.172 388.5 182.5 392.828 182.5 398.167L182.5 436.833C182.5 442.172 178.172 446.5 172.833 446.5L88.1669 446.5C82.8281 446.5 78.5001 442.172 78.5001 436.833Z" stroke="#156082" stroke-linejoin="round" stroke-miterlimit="10" fill="none" fill-rule="evenodd"/><text font-family="Yu Gothic,Yu Gothic_MSFontService,sans-serif" font-weight="400" font-size="16" transform="translate(92.9321 423)">Local File</text><path d="M0.624813-0.780774 230.357 183.062 229.108 184.624-0.624813 0.780774ZM231.19 179.886 234.937 188.008 226.192 186.133Z" fill="#156082" transform="matrix(-1 0 0 1 417.937 365)"/><path d="M80.5001 534.167C80.5001 528.828 84.828 524.5 90.1669 524.5L173.833 524.5C179.172 524.5 183.5 528.828 183.5 534.167L183.5 572.833C183.5 578.172 179.172 582.5 173.833 582.5L90.1669 582.5C84.828 582.5 80.5001 578.172 80.5001 572.833Z" stroke="#156082" stroke-linejoin="round" stroke-miterlimit="10" fill="none" fill-rule="evenodd"/><text font-family="Yu Gothic,Yu Gothic_MSFontService,sans-serif" font-weight="400" font-size="16" transform="translate(120.851 558)">…</text></g></svg>